<svg width="32" height="32" fill="none" viewBox="0 0 32 32" xmlns="http://www.w3.org/2000/svg"><path stroke="#9896FF" stroke-width="2" d="M16 31c8.284 0 15-6.716 15-15S24.284 1 16 1 1 7.716 1 16s6.716 15 15 15Z"/><g clip-path="url(#amon__circleClip)"><g style="transform:scale(.8125);transform-origin:50% 50%"><g><path fill="#836EF9" fill-rule="evenodd" d="M16 0C11.38 0 0 11.378 0 16s11.38 16 16 16 16-11.38 16-16S20.62 0 16 0m-2.492 25.149c-1.95-.53-7.188-9.695-6.656-11.643s9.694-7.186 11.642-6.654c1.947.53 7.186 9.694 6.655 11.642s-9.695 7.186-11.643 6.655" clip-rule="evenodd"/></g></g></g><defs><clipPath id="amon__circleClip"><circle cx="16" cy="16" r="13"/></clipPath></defs></svg>