<svg width="32" height="32" fill="none" viewBox="0 0 32 32" xmlns="http://www.w3.org/2000/svg"><g clip-path="url(#solvbtc__clip0_3264_149)"><path fill="#fff" d="M16 32c8.837 0 16-7.163 16-16S24.837 0 16 0 0 7.163 0 16s7.163 16 16 16"/><path fill="#7569DE" d="M16 30.62c8.074 0 14.62-6.546 14.62-14.62S24.074 1.38 16 1.38 1.38 7.926 1.38 16 7.926 30.62 16 30.62"/><path fill="#DDD8FC" d="M12.14 8.13h-.01a.46.46 0 0 0-.46.46v15c0 .254.206.46.46.46h.01a.46.46 0 0 0 .46-.46v-15a.46.46 0 0 0-.46-.46M13.58 8.13h-.01a.46.46 0 0 0-.46.46v15c0 .254.206.46.46.46h.01a.46.46 0 0 0 .46-.46v-15a.46.46 0 0 0-.46-.46M15.03 8.13h-.01a.46.46 0 0 0-.46.46v2.21c0 .254.206.46.46.46h.01a.46.46 0 0 0 .46-.46V8.59a.46.46 0 0 0-.46-.46M16.47 8.13h-.01a.46.46 0 0 0-.46.46v2.21c0 .254.206.46.46.46h.01a.46.46 0 0 0 .46-.46V8.59a.46.46 0 0 0-.46-.46M9.25 8.13h-.01a.46.46 0 0 0-.46.46v2.21c0 .254.206.46.46.46h.01a.46.46 0 0 0 .46-.46V8.59a.46.46 0 0 0-.46-.46M10.69 8.13h-.01a.46.46 0 0 0-.46.46v2.21c0 .254.206.46.46.46h.01a.46.46 0 0 0 .46-.46V8.59a.46.46 0 0 0-.46-.46M17.91 8.13h-.01a.46.46 0 0 0-.46.46v2.21c0 .254.206.46.46.46h.01a.46.46 0 0 0 .46-.46V8.59a.46.46 0 0 0-.46-.46M16.47 4.68h-.01a.46.46 0 0 0-.46.46v2.21c0 .254.206.46.46.46h.01a.46.46 0 0 0 .46-.46V5.14a.46.46 0 0 0-.46-.46M17.91 4.68h-.01a.46.46 0 0 0-.46.46v2.21c0 .254.206.46.46.46h.01a.46.46 0 0 0 .46-.46V5.14a.46.46 0 0 0-.46-.46M12.14 4.68h-.01a.46.46 0 0 0-.46.46v2.21c0 .254.206.46.46.46h.01a.46.46 0 0 0 .46-.46V5.14a.46.46 0 0 0-.46-.46M13.58 4.68h-.01a.46.46 0 0 0-.46.46v2.21c0 .254.206.46.46.46h.01a.46.46 0 0 0 .46-.46V5.14a.46.46 0 0 0-.46-.46M16.47 24.52h-.01a.46.46 0 0 0-.46.46v2.21c0 .254.206.46.46.46h.01a.46.46 0 0 0 .46-.46v-2.21a.46.46 0 0 0-.46-.46M17.91 24.52h-.01a.46.46 0 0 0-.46.46v2.21c0 .254.206.46.46.46h.01a.46.46 0 0 0 .46-.46v-2.21a.46.46 0 0 0-.46-.46M12.14 24.52h-.01a.46.46 0 0 0-.46.46v2.21c0 .254.206.46.46.46h.01a.46.46 0 0 0 .46-.46v-2.21a.46.46 0 0 0-.46-.46M13.58 24.52h-.01a.46.46 0 0 0-.46.46v2.21c0 .254.206.46.46.46h.01a.46.46 0 0 0 .46-.46v-2.21a.46.46 0 0 0-.46-.46M19.36 8.13h-.01a.46.46 0 0 0-.46.46v2.21c0 .254.206.46.46.46h.01a.46.46 0 0 0 .46-.46V8.59a.46.46 0 0 0-.46-.46M23.69 11.31h-.01a.46.46 0 0 0-.46.46v2.21c0 .254.206.46.46.46h.01a.46.46 0 0 0 .46-.46v-2.21a.46.46 0 0 0-.46-.46M23.69 17.66h-.01a.46.46 0 0 0-.46.46v2.21c0 .254.206.46.46.46h.01a.46.46 0 0 0 .46-.46v-2.21a.46.46 0 0 0-.46-.46M15.03 14.53h-.01a.46.46 0 0 0-.46.46v2.21c0 .254.206.46.46.46h.01a.46.46 0 0 0 .46-.46v-2.21a.46.46 0 0 0-.46-.46M16.47 14.53h-.01a.46.46 0 0 0-.46.46v2.21c0 .254.206.46.46.46h.01a.46.46 0 0 0 .46-.46v-2.21a.46.46 0 0 0-.46-.46M17.91 14.53h-.01a.46.46 0 0 0-.46.46v2.21c0 .254.206.46.46.46h.01a.46.46 0 0 0 .46-.46v-2.21a.46.46 0 0 0-.46-.46M19.36 14.53h-.01a.46.46 0 0 0-.46.46v2.21c0 .254.206.46.46.46h.01a.46.46 0 0 0 .46-.46v-2.21a.46.46 0 0 0-.46-.46M15.03 20.89h-.01a.46.46 0 0 0-.46.46v2.21c0 .254.206.46.46.46h.01a.46.46 0 0 0 .46-.46v-2.21a.46.46 0 0 0-.46-.46M16.47 20.89h-.01a.46.46 0 0 0-.46.46v2.21c0 .254.206.46.46.46h.01a.46.46 0 0 0 .46-.46v-2.21a.46.46 0 0 0-.46-.46M9.25 20.89h-.01a.46.46 0 0 0-.46.46v2.21c0 .254.206.46.46.46h.01a.46.46 0 0 0 .46-.46v-2.21a.46.46 0 0 0-.46-.46M10.69 20.89h-.01a.46.46 0 0 0-.46.46v2.21c0 .254.206.46.46.46h.01a.46.46 0 0 0 .46-.46v-2.21a.46.46 0 0 0-.46-.46M17.91 20.89h-.01a.46.46 0 0 0-.46.46v2.21c0 .254.206.46.46.46h.01a.46.46 0 0 0 .46-.46v-2.21a.46.46 0 0 0-.46-.46M19.36 20.89h-.01a.46.46 0 0 0-.46.46v2.21c0 .254.206.46.46.46h.01a.46.46 0 0 0 .46-.46v-2.21a.46.46 0 0 0-.46-.46M20.8 8.13h-.01a.46.46 0 0 0-.46.46v15c0 .254.206.46.46.46h.01a.46.46 0 0 0 .46-.46v-15a.46.46 0 0 0-.46-.46M22.25 9.73h-.01a.46.46 0 0 0-.46.46V22c0 .254.206.46.46.46h.01a.46.46 0 0 0 .46-.46V10.19a.46.46 0 0 0-.46-.46"/></g><defs><clipPath id="solvbtc__clip0_3264_149"><path fill="#fff" d="M0 0h32v32H0z"/></clipPath></defs></svg>