<svg width="32" height="32" fill="none" viewBox="0 0 32 32" xmlns="http://www.w3.org/2000/svg"><g clip-path="url(#wrappedmantle__clip0_3149_5)"><path fill="#000" d="M16 32c8.837 0 16-7.163 16-16S24.837 0 16 0 0 7.163 0 16s7.163 16 16 16"/><path fill="#fff" fill-rule="evenodd" d="m17.24 8.1.62-3.98c-.61-.09-1.23-.14-1.86-.14v8.11c.34 0 .68.04 1.01.13l1.05-3.95a8 8 0 0 0-.82-.17M14.04 12.62l-2.02-3.48q-.36.21-.69.45l-2.41-3.3c.51-.37 1.05-.7 1.6-.99l1.83 3.58c.37-.19.76-.35 1.16-.48l-1.25-3.82c.6-.19 1.21-.34 1.83-.44l.64 4.04c-.27.04-.54.1-.81.17l1.04 3.88c-.33.09-.64.22-.94.39zM8.93 12.41l-3.64-1.85c-.29.56-.53 1.15-.72 1.74l3.89 1.26c.13-.39.29-.78.47-1.15M22.86 12.02l-3.48 2.02c.17.29.3.61.39.94l3.88-1.05c.07.27.13.54.17.81l4.04-.64c-.1-.62-.25-1.24-.44-1.83l-3.82 1.25c-.13-.4-.29-.78-.48-1.16l3.58-1.84c-.29-.56-.62-1.1-.99-1.6l-3.3 2.41q.24.33.45.69M21.44 5.28c-.56-.28-1.15-.53-1.74-.72l-1.26 3.89c.39.13.78.29 1.15.47l1.85-3.65zM19.99 9.07l-2.04 3.54c.3.17.57.38.81.62l5.73-5.75c-.44-.44-.93-.85-1.43-1.22L20.7 9.52c-.23-.16-.46-.31-.7-.45zM12.61 14.05l-3.54-2.04c.14-.24.29-.47.45-.7L6.27 8.95c.37-.51.78-.99 1.22-1.43l5.74 5.73c-.24.24-.45.52-.62.81zM8.27 13.94l3.95 1.05c-.09.33-.13.66-.13 1.01H3.98c0-.62.05-1.25.14-1.86l3.98.62c.04-.28.1-.55.17-.82M23.07 19.59l3.64 1.85c.28-.56.53-1.15.72-1.74l-3.89-1.26c-.13.39-.29.78-.47 1.15M17.96 19.38l2.02 3.48q.36-.21.69-.45l2.41 3.3c-.51.37-1.05.7-1.6.99l-1.83-3.58c-.37.19-.76.35-1.16.48l1.25 3.82c-.6.19-1.21.34-1.83.44l-.64-4.04c.27-.04.54-.1.81-.17l-1.04-3.88c.33-.09.64-.22.94-.39zM9.14 19.98l3.48-2.02c-.17-.29-.3-.61-.39-.94l-3.88 1.05c-.07-.27-.13-.54-.17-.81l-4.04.64c.1.62.25 1.24.44 1.83l3.82-1.25c.13.4.29.78.48 1.16L5.3 21.48c.29.56.62 1.1.99 1.6l3.3-2.41q-.24-.33-.45-.69M10.56 26.72c.56.28 1.15.53 1.74.72l1.26-3.89c-.39-.13-.78-.29-1.15-.47zM12.01 22.93l2.04-3.54c-.3-.17-.57-.38-.81-.62l-5.73 5.75c.44.44.93.85 1.43 1.22l2.36-3.26c.23.16.46.31.7.45zM19.38 17.95l3.54 2.04c-.14.24-.29.47-.45.7l3.25 2.36c-.37.51-.78.99-1.22 1.43l-5.74-5.73c.24-.24.45-.52.62-.81zM14.99 19.77l-1.05 3.95c.27.07.54.13.82.17l-.62 3.98c.61.09 1.23.14 1.86.14V19.9c-.34 0-.68-.04-1.01-.13M19.77 17.01c.09-.33.13-.66.13-1.01h8.11c0 .62-.05 1.25-.14 1.86l-3.98-.62c-.04.28-.1.55-.17.82z" clip-rule="evenodd"/></g><defs><clipPath id="wrappedmantle__clip0_3149_5"><path fill="#fff" d="M0 0h32v32H0z"/></clipPath></defs></svg>