<svg width="32" height="32" fill="none" viewBox="0 0 32 32" xmlns="http://www.w3.org/2000/svg"><g clip-path="url(#okxwrappedstakedsol__clip0_3302_67)"><path fill="#fff" d="M0 0h32v32H0z"/><path fill="#010101" d="M16 32c8.837 0 16-7.163 16-16S24.837 0 16 0 0 7.163 0 16s7.163 16 16 16"/><path fill="#fff" d="M27.32 4.69H4.69v22.63h22.63z"/><path fill="#010101" d="M16 27.31c6.246 0 11.31-5.064 11.31-11.31S22.246 4.69 16 4.69 4.69 9.754 4.69 16 9.754 27.31 16 27.31"/><path fill="#fff" d="M11.55 18.72c.08-.08.19-.13.31-.13h10.52c.19 0 .29.23.15.37l-2.08 2.08c-.08.08-.19.13-.31.13H9.62c-.19 0-.29-.23-.15-.37zM11.55 10.96c.08-.08.19-.13.31-.13h10.52c.19 0 .29.23.15.37l-2.08 2.08c-.08.08-.19.13-.31.13H9.62c-.19 0-.29-.23-.15-.37zM20.45 14.81a.44.44 0 0 0-.31-.13H9.62c-.19 0-.29.23-.15.37l2.08 2.08c.08.08.19.13.31.13h10.52c.19 0 .29-.23.15-.37z"/></g><defs><clipPath id="okxwrappedstakedsol__clip0_3302_67"><path fill="#fff" d="M0 0h32v32H0z"/></clipPath></defs></svg>