<svg width="32" height="32" viewBox="0 0 32 32" fill="none" xmlns="http://www.w3.org/2000/svg">
<circle cx="16" cy="16" r="16" fill="#000000"/>
<path fill="#FFFFFF" d="M4.525 28C4.72 22.125 5.72 16.641 7.391 12.377C9.507 6.975 12.571 4 16.017 4C19.463 4 22.526 6.975 24.643 12.377C25.744 15.187 26.554 18.525 27.034 22.157C27.077 22.481 27.113 22.811 27.151 23.14C27.163 23.16 27.17 23.179 27.168 23.194C27.168 23.194 27.45 24.949 27.51 28H27.478C27.06 27.658 22.126 23.795 13.948 24.913C14.071 23.534 14.241 22.192 14.46 20.906C14.471 20.84 14.484 20.777 14.496 20.712C17.703 20.615 20.511 20.986 22.664 21.473C22.656 21.422 22.649 21.37 22.641 21.319C22.199 18.573 21.546 16.058 20.704 13.91C19.327 10.397 17.531 8.214 16.017 8.214C14.503 8.214 12.707 10.397 11.33 13.91C10.997 14.76 10.694 15.666 10.422 16.622C10.039 17.961 9.718 19.397 9.462 20.906C9.082 23.134 8.845 25.524 8.757 28H4.525Z"/>
</svg>
