<svg width="32" height="32" viewBox="0 0 32 32" fill="none" xmlns="http://www.w3.org/2000/svg">
<g clip-path="url(#clip0_3258_22)">
<path d="M16 0C7.16 0 0 7.16 0 16C0 24.84 7.16 32 16 32C24.84 32 32 24.84 32 16C32 7.16 24.84 0 16 0ZM16 31.27C7.58 31.27 0.73 24.42 0.73 16C0.73 7.58 7.58 0.73 16 0.73C24.42 0.73 31.27 7.58 31.27 16C31.27 24.42 24.42 31.27 16 31.27Z" fill="#213147"/>
<path d="M16 2.62C8.61 2.62 2.62 8.61 2.62 16C2.62 23.39 8.61 29.38 16 29.38C23.39 29.38 29.38 23.39 29.38 16C29.38 8.61 23.39 2.62 16 2.62ZM16.29 24H16.27C12.56 24 10.45 21.48 9.83 18.14H7.98V16.49H9.66C9.64 16.3 9.64 16.12 9.64 15.93C9.64 15.61 9.66 15.3 9.68 15H7.98V13.35H9.91C10.62 10.18 12.69 7.86 16.28 7.86C19.87 7.86 21.97 10.31 22.46 13.31H19.66C19.29 11.75 18.29 10.47 16.28 10.47C14.27 10.47 13.31 11.66 12.86 13.36H16.7V15.01H12.59C12.57 15.31 12.55 15.62 12.55 15.94C12.55 16.13 12.55 16.31 12.57 16.5H16.7V18.15H12.76C13.18 20.04 14.23 21.4 16.29 21.4C18.45 21.4 19.42 19.9 19.75 18.15H22.53C22.14 21.36 20.11 24.01 16.28 24.01L16.29 24Z" fill="#213147"/>
</g>
<defs>
<clipPath id="clip0_3258_22">
<rect width="32" height="32" fill="white"/>
</clipPath>
</defs>
</svg>
