<svg width="32" height="32" viewBox="0 0 32 32" fill="none" xmlns="http://www.w3.org/2000/svg">
<g clip-path="url(#clip0_3258_24)">
<path d="M16 32C24.84 32 32 24.84 32 16C32 7.16 24.84 0 16 0C7.16 0 0 7.16 0 16C0 24.84 7.16 32 16 32Z" fill="#4A13B8"/>
<path d="M16 31.27C7.58 31.27 0.73 24.42 0.73 16C0.73 7.58 7.58 0.73 16 0.73C24.42 0.73 31.27 7.58 31.27 16C31.27 24.42 24.42 31.27 16 31.27ZM16 5.96C10.47 5.96 5.96 10.46 5.96 16C5.96 21.54 10.46 26.04 16 26.04C21.54 26.04 26.04 21.54 26.04 16C26.04 10.46 21.54 5.96 16 5.96Z" fill="url(#paint0_linear_3258_24)"/>
<path d="M16 29.38C23.39 29.38 29.38 23.39 29.38 16C29.38 8.61 23.39 2.62 16 2.62C8.61 2.62 2.62 8.61 2.62 16C2.62 23.39 8.61 29.38 16 29.38Z" fill="#4A13B8"/>
<path d="M16.3 24C12.59 24 10.47 21.48 9.85 18.14H8V16.49H9.68C9.66 16.3 9.66 16.12 9.66 15.93C9.66 15.61 9.68 15.3 9.7 15H8V13.35H9.93C10.64 10.18 12.71 7.86 16.3 7.86C19.89 7.86 21.99 10.31 22.48 13.31H19.68C19.31 11.75 18.31 10.47 16.3 10.47C14.29 10.47 13.33 11.66 12.88 13.36H16.72V15.01H12.61C12.59 15.31 12.57 15.62 12.57 15.94C12.57 16.13 12.57 16.31 12.59 16.5H16.72V18.15H12.78C13.2 20.04 14.25 21.4 16.31 21.4C18.47 21.4 19.44 19.9 19.77 18.15H22.55C22.16 21.36 20.13 24.01 16.29 24.01H16.31L16.3 24Z" fill="url(#paint1_linear_3258_24)"/>
</g>
<defs>
<linearGradient id="paint0_linear_3258_24" x1="4.07998" y1="5.92998" x2="34.51" y2="31.63" gradientUnits="userSpaceOnUse">
<stop offset="0.45" stop-color="#81ABF8"/>
<stop offset="0.6" stop-color="#FFFF87"/>
</linearGradient>
<linearGradient id="paint1_linear_3258_24" x1="15.27" y1="7.84986" x2="15.27" y2="23.9999" gradientUnits="userSpaceOnUse">
<stop stop-color="#E0DAFB"/>
<stop offset="0.98" stop-color="#FAF9FF"/>
</linearGradient>
<clipPath id="clip0_3258_24">
<rect width="32" height="32" fill="white"/>
</clipPath>
</defs>
</svg>
