<svg width="32" height="32" viewBox="0 0 32 32" fill="none" xmlns="http://www.w3.org/2000/svg">
<g clip-path="url(#clip0_3149_8)">
<path d="M16 0C7.16 0 0 7.17 0 16C0 24.83 7.16 32 16 32C24.84 32 32 24.84 32 16C32 7.16 24.84 0 16 0ZM26.7 10.52L23.12 12.36C23.31 12.73 23.47 13.12 23.6 13.52L27.42 12.27C27.61 12.87 27.76 13.48 27.86 14.1L23.82 14.74C23.78 14.47 23.72 14.2 23.65 13.93L19.77 14.98C19.68 14.65 19.55 14.34 19.38 14.04L22.86 12.02C22.72 11.78 22.57 11.55 22.41 11.33L25.71 8.92C26.08 9.43 26.41 9.97 26.7 10.52ZM24.48 7.49L18.75 13.24C18.51 13 18.24 12.79 17.94 12.62L19.98 9.08C20.22 9.22 20.45 9.37 20.68 9.53L23.04 6.27C23.55 6.64 24.03 7.05 24.47 7.49H24.48ZM19.69 4.57C20.29 4.76 20.87 5.01 21.43 5.29L19.58 8.93C19.21 8.74 18.82 8.58 18.43 8.46L19.69 4.57ZM10.53 5.3L12.36 8.88C12.73 8.69 13.12 8.53 13.52 8.4L12.27 4.58C12.87 4.39 13.48 4.24 14.1 4.14L14.74 8.18C14.47 8.22 14.2 8.28 13.93 8.35L14.97 12.23C14.64 12.32 14.33 12.45 14.03 12.62L12.01 9.14C11.77 9.28 11.54 9.43 11.32 9.59L8.91 6.29C9.42 5.92 9.96 5.59 10.51 5.3H10.53ZM7.49 7.52L13.23 13.25C12.99 13.49 12.78 13.77 12.61 14.06L9.07 12.02C9.21 11.78 9.36 11.55 9.52 11.32L6.27 8.96C6.64 8.45 7.05 7.97 7.49 7.53V7.52ZM5.29 10.56L8.93 12.41C8.74 12.78 8.58 13.17 8.46 13.56L4.57 12.3C4.76 11.7 5 11.11 5.29 10.56ZM4.13 14.14L8.11 14.76C8.15 14.48 8.21 14.21 8.28 13.95L12.23 15C12.14 15.33 12.1 15.66 12.1 16.01H3.98C3.98 15.39 4.03 14.76 4.12 14.15L4.13 14.14ZM5.3 21.48L8.88 19.64C8.69 19.27 8.53 18.88 8.4 18.48L4.58 19.73C4.39 19.13 4.24 18.52 4.14 17.9L8.18 17.26C8.22 17.53 8.28 17.8 8.35 18.07L12.23 17.02C12.32 17.35 12.45 17.66 12.62 17.96L9.14 19.98C9.28 20.22 9.43 20.45 9.59 20.67L6.29 23.08C5.92 22.57 5.59 22.03 5.3 21.48ZM7.52 24.52L13.25 18.77C13.49 19.01 13.76 19.22 14.06 19.39L12.02 22.93C11.78 22.79 11.55 22.64 11.32 22.48L8.96 25.74C8.45 25.37 7.97 24.96 7.53 24.52H7.52ZM12.31 27.44C11.71 27.25 11.13 27 10.57 26.72L12.42 23.08C12.79 23.27 13.18 23.43 13.57 23.55L12.31 27.44ZM16.01 28.02C15.39 28.02 14.76 27.97 14.15 27.88L14.77 23.9C14.49 23.86 14.22 23.8 13.95 23.73L15 19.78C15.33 19.87 15.66 19.91 16.01 19.91V28.02ZM16 12.1V3.99C16.62 3.99 17.25 4.04 17.86 4.13L17.24 8.11C17.52 8.15 17.79 8.21 18.06 8.28L17.01 12.23C16.68 12.14 16.35 12.1 16 12.1ZM21.47 26.7L19.64 23.12C19.27 23.31 18.88 23.47 18.48 23.6L19.73 27.42C19.13 27.61 18.52 27.76 17.9 27.86L17.26 23.82C17.53 23.78 17.8 23.72 18.07 23.65L17.03 19.77C17.36 19.68 17.67 19.55 17.97 19.38L19.99 22.86C20.23 22.72 20.46 22.57 20.68 22.41L23.09 25.71C22.58 26.08 22.04 26.41 21.49 26.7H21.47ZM24.5 24.49L18.76 18.76C19 18.52 19.21 18.24 19.38 17.95L22.92 19.99C22.78 20.23 22.63 20.46 22.47 20.69L25.72 23.05C25.35 23.56 24.94 24.04 24.5 24.48V24.49ZM26.71 21.45L23.07 19.6C23.26 19.23 23.42 18.84 23.54 18.45L27.43 19.71C27.24 20.31 26.99 20.9 26.71 21.45ZM23.9 17.25C23.86 17.53 23.8 17.8 23.73 18.07L19.78 17.02C19.87 16.69 19.91 16.36 19.91 16.01H28.02C28.02 16.63 27.97 17.26 27.88 17.87L23.9 17.25Z" fill="#213147"/>
</g>
<defs>
<clipPath id="clip0_3149_8">
<rect width="32" height="32" fill="white"/>
</clipPath>
</defs>
</svg>
