<svg width="32" height="32" viewBox="0 0 32 32" fill="none" xmlns="http://www.w3.org/2000/svg">
<g clip-path="url(#clip0_3264_149)">
<path d="M16 32C24.8366 32 32 24.8366 32 16C32 7.16344 24.8366 0 16 0C7.16344 0 0 7.16344 0 16C0 24.8366 7.16344 32 16 32Z" fill="white"/>
<path d="M16 30.62C24.0744 30.62 30.62 24.0744 30.62 16C30.62 7.9256 24.0744 1.38 16 1.38C7.9256 1.38 1.38 7.9256 1.38 16C1.38 24.0744 7.9256 30.62 16 30.62Z" fill="#7569DE"/>
<path d="M12.14 8.13H12.13C11.8759 8.13 11.67 8.33595 11.67 8.59V23.59C11.67 23.8441 11.8759 24.05 12.13 24.05H12.14C12.3941 24.05 12.6 23.8441 12.6 23.59V8.59C12.6 8.33595 12.3941 8.13 12.14 8.13Z" fill="#DDD8FC"/>
<path d="M13.58 8.13H13.57C13.3159 8.13 13.11 8.33595 13.11 8.59V23.59C13.11 23.8441 13.3159 24.05 13.57 24.05H13.58C13.8341 24.05 14.04 23.8441 14.04 23.59V8.59C14.04 8.33595 13.8341 8.13 13.58 8.13Z" fill="#DDD8FC"/>
<path d="M15.03 8.13H15.02C14.7659 8.13 14.56 8.33595 14.56 8.59V10.8C14.56 11.0541 14.7659 11.26 15.02 11.26H15.03C15.2841 11.26 15.49 11.0541 15.49 10.8V8.59C15.49 8.33595 15.2841 8.13 15.03 8.13Z" fill="#DDD8FC"/>
<path d="M16.47 8.13H16.46C16.2059 8.13 16 8.33595 16 8.59V10.8C16 11.0541 16.2059 11.26 16.46 11.26H16.47C16.7241 11.26 16.93 11.0541 16.93 10.8V8.59C16.93 8.33595 16.7241 8.13 16.47 8.13Z" fill="#DDD8FC"/>
<path d="M9.25 8.13H9.24C8.98595 8.13 8.78 8.33595 8.78 8.59V10.8C8.78 11.0541 8.98595 11.26 9.24 11.26H9.25C9.50405 11.26 9.71 11.0541 9.71 10.8V8.59C9.71 8.33595 9.50405 8.13 9.25 8.13Z" fill="#DDD8FC"/>
<path d="M10.69 8.13H10.68C10.4259 8.13 10.22 8.33595 10.22 8.59V10.8C10.22 11.0541 10.4259 11.26 10.68 11.26H10.69C10.9441 11.26 11.15 11.0541 11.15 10.8V8.59C11.15 8.33595 10.9441 8.13 10.69 8.13Z" fill="#DDD8FC"/>
<path d="M17.91 8.13H17.9C17.6459 8.13 17.44 8.33595 17.44 8.59V10.8C17.44 11.0541 17.6459 11.26 17.9 11.26H17.91C18.1641 11.26 18.37 11.0541 18.37 10.8V8.59C18.37 8.33595 18.1641 8.13 17.91 8.13Z" fill="#DDD8FC"/>
<path d="M16.47 4.68H16.46C16.2059 4.68 16 4.88595 16 5.14V7.35C16 7.60405 16.2059 7.81 16.46 7.81H16.47C16.7241 7.81 16.93 7.60405 16.93 7.35V5.14C16.93 4.88595 16.7241 4.68 16.47 4.68Z" fill="#DDD8FC"/>
<path d="M17.91 4.68H17.9C17.6459 4.68 17.44 4.88595 17.44 5.14V7.35C17.44 7.60405 17.6459 7.81 17.9 7.81H17.91C18.1641 7.81 18.37 7.60405 18.37 7.35V5.14C18.37 4.88595 18.1641 4.68 17.91 4.68Z" fill="#DDD8FC"/>
<path d="M12.14 4.68H12.13C11.8759 4.68 11.67 4.88595 11.67 5.14V7.35C11.67 7.60405 11.8759 7.81 12.13 7.81H12.14C12.3941 7.81 12.6 7.60405 12.6 7.35V5.14C12.6 4.88595 12.3941 4.68 12.14 4.68Z" fill="#DDD8FC"/>
<path d="M13.58 4.68H13.57C13.3159 4.68 13.11 4.88595 13.11 5.14V7.35C13.11 7.60405 13.3159 7.81 13.57 7.81H13.58C13.8341 7.81 14.04 7.60405 14.04 7.35V5.14C14.04 4.88595 13.8341 4.68 13.58 4.68Z" fill="#DDD8FC"/>
<path d="M16.47 24.52H16.46C16.2059 24.52 16 24.7259 16 24.98V27.19C16 27.4441 16.2059 27.65 16.46 27.65H16.47C16.7241 27.65 16.93 27.4441 16.93 27.19V24.98C16.93 24.7259 16.7241 24.52 16.47 24.52Z" fill="#DDD8FC"/>
<path d="M17.91 24.52H17.9C17.6459 24.52 17.44 24.7259 17.44 24.98V27.19C17.44 27.4441 17.6459 27.65 17.9 27.65H17.91C18.1641 27.65 18.37 27.4441 18.37 27.19V24.98C18.37 24.7259 18.1641 24.52 17.91 24.52Z" fill="#DDD8FC"/>
<path d="M12.14 24.52H12.13C11.8759 24.52 11.67 24.7259 11.67 24.98V27.19C11.67 27.4441 11.8759 27.65 12.13 27.65H12.14C12.3941 27.65 12.6 27.4441 12.6 27.19V24.98C12.6 24.7259 12.3941 24.52 12.14 24.52Z" fill="#DDD8FC"/>
<path d="M13.58 24.52H13.57C13.3159 24.52 13.11 24.7259 13.11 24.98V27.19C13.11 27.4441 13.3159 27.65 13.57 27.65H13.58C13.8341 27.65 14.04 27.4441 14.04 27.19V24.98C14.04 24.7259 13.8341 24.52 13.58 24.52Z" fill="#DDD8FC"/>
<path d="M19.36 8.13H19.35C19.0959 8.13 18.89 8.33595 18.89 8.59V10.8C18.89 11.0541 19.0959 11.26 19.35 11.26H19.36C19.6141 11.26 19.82 11.0541 19.82 10.8V8.59C19.82 8.33595 19.6141 8.13 19.36 8.13Z" fill="#DDD8FC"/>
<path d="M23.69 11.31H23.68C23.4259 11.31 23.22 11.5159 23.22 11.77V13.98C23.22 14.2341 23.4259 14.44 23.68 14.44H23.69C23.9441 14.44 24.15 14.2341 24.15 13.98V11.77C24.15 11.5159 23.9441 11.31 23.69 11.31Z" fill="#DDD8FC"/>
<path d="M23.69 17.66H23.68C23.4259 17.66 23.22 17.8659 23.22 18.12V20.33C23.22 20.5841 23.4259 20.79 23.68 20.79H23.69C23.9441 20.79 24.15 20.5841 24.15 20.33V18.12C24.15 17.8659 23.9441 17.66 23.69 17.66Z" fill="#DDD8FC"/>
<path d="M15.03 14.53H15.02C14.7659 14.53 14.56 14.7359 14.56 14.99V17.2C14.56 17.4541 14.7659 17.66 15.02 17.66H15.03C15.2841 17.66 15.49 17.4541 15.49 17.2V14.99C15.49 14.7359 15.2841 14.53 15.03 14.53Z" fill="#DDD8FC"/>
<path d="M16.47 14.53H16.46C16.2059 14.53 16 14.7359 16 14.99V17.2C16 17.4541 16.2059 17.66 16.46 17.66H16.47C16.7241 17.66 16.93 17.4541 16.93 17.2V14.99C16.93 14.7359 16.7241 14.53 16.47 14.53Z" fill="#DDD8FC"/>
<path d="M17.91 14.53H17.9C17.6459 14.53 17.44 14.7359 17.44 14.99V17.2C17.44 17.4541 17.6459 17.66 17.9 17.66H17.91C18.1641 17.66 18.37 17.4541 18.37 17.2V14.99C18.37 14.7359 18.1641 14.53 17.91 14.53Z" fill="#DDD8FC"/>
<path d="M19.36 14.53H19.35C19.0959 14.53 18.89 14.7359 18.89 14.99V17.2C18.89 17.4541 19.0959 17.66 19.35 17.66H19.36C19.6141 17.66 19.82 17.4541 19.82 17.2V14.99C19.82 14.7359 19.6141 14.53 19.36 14.53Z" fill="#DDD8FC"/>
<path d="M15.03 20.89H15.02C14.7659 20.89 14.56 21.0959 14.56 21.35V23.56C14.56 23.8141 14.7659 24.02 15.02 24.02H15.03C15.2841 24.02 15.49 23.8141 15.49 23.56V21.35C15.49 21.0959 15.2841 20.89 15.03 20.89Z" fill="#DDD8FC"/>
<path d="M16.47 20.89H16.46C16.2059 20.89 16 21.0959 16 21.35V23.56C16 23.8141 16.2059 24.02 16.46 24.02H16.47C16.7241 24.02 16.93 23.8141 16.93 23.56V21.35C16.93 21.0959 16.7241 20.89 16.47 20.89Z" fill="#DDD8FC"/>
<path d="M9.25 20.89H9.24C8.98595 20.89 8.78 21.0959 8.78 21.35V23.56C8.78 23.8141 8.98595 24.02 9.24 24.02H9.25C9.50405 24.02 9.71 23.8141 9.71 23.56V21.35C9.71 21.0959 9.50405 20.89 9.25 20.89Z" fill="#DDD8FC"/>
<path d="M10.69 20.89H10.68C10.4259 20.89 10.22 21.0959 10.22 21.35V23.56C10.22 23.8141 10.4259 24.02 10.68 24.02H10.69C10.9441 24.02 11.15 23.8141 11.15 23.56V21.35C11.15 21.0959 10.9441 20.89 10.69 20.89Z" fill="#DDD8FC"/>
<path d="M17.91 20.89H17.9C17.6459 20.89 17.44 21.0959 17.44 21.35V23.56C17.44 23.8141 17.6459 24.02 17.9 24.02H17.91C18.1641 24.02 18.37 23.8141 18.37 23.56V21.35C18.37 21.0959 18.1641 20.89 17.91 20.89Z" fill="#DDD8FC"/>
<path d="M19.36 20.89H19.35C19.0959 20.89 18.89 21.0959 18.89 21.35V23.56C18.89 23.8141 19.0959 24.02 19.35 24.02H19.36C19.6141 24.02 19.82 23.8141 19.82 23.56V21.35C19.82 21.0959 19.6141 20.89 19.36 20.89Z" fill="#DDD8FC"/>
<path d="M20.8 8.13H20.79C20.5359 8.13 20.33 8.33595 20.33 8.59V23.59C20.33 23.8441 20.5359 24.05 20.79 24.05H20.8C21.0541 24.05 21.26 23.8441 21.26 23.59V8.59C21.26 8.33595 21.0541 8.13 20.8 8.13Z" fill="#DDD8FC"/>
<path d="M22.25 9.73H22.24C21.9859 9.73 21.78 9.93595 21.78 10.19V22C21.78 22.2541 21.9859 22.46 22.24 22.46H22.25C22.5041 22.46 22.71 22.2541 22.71 22V10.19C22.71 9.93595 22.5041 9.73 22.25 9.73Z" fill="#DDD8FC"/>
</g>
<defs>
<clipPath id="clip0_3264_149">
<rect width="32" height="32" fill="white"/>
</clipPath>
</defs>
</svg>
