<svg width="32" height="32" viewBox="0 0 32 32" fill="none" xmlns="http://www.w3.org/2000/svg">
<g clip-path="url(#clip0_3264_147)">
<path d="M16 0C7.16 0 0 7.16 0 16C0 24.84 7.16 32 16 32C24.84 32 32 24.84 32 16C32 7.16 24.84 0 16 0ZM9.7 23.56C9.7 23.82 9.49 24.02 9.24 24.02C8.99 24.02 8.78 23.81 8.78 23.56V21.35C8.78 21.09 8.99 20.89 9.24 20.89C9.49 20.89 9.7 21.1 9.7 21.35V23.56ZM9.7 10.8C9.7 11.06 9.49 11.26 9.24 11.26C8.99 11.26 8.78 11.05 8.78 10.8V8.59C8.78 8.33 8.99 8.13 9.24 8.13C9.49 8.13 9.7 8.34 9.7 8.59V10.8ZM11.15 23.56C11.15 23.82 10.94 24.02 10.69 24.02C10.44 24.02 10.23 23.81 10.23 23.56V21.35C10.23 21.09 10.44 20.89 10.69 20.89C10.94 20.89 11.15 21.1 11.15 21.35V23.56ZM11.15 10.8C11.15 11.06 10.94 11.26 10.69 11.26C10.44 11.26 10.23 11.05 10.23 10.8V8.59C10.23 8.33 10.44 8.13 10.69 8.13C10.94 8.13 11.15 8.34 11.15 8.59V10.8ZM12.59 27.19C12.59 27.45 12.38 27.65 12.13 27.65C11.88 27.65 11.67 27.44 11.67 27.19V24.98C11.67 24.72 11.88 24.52 12.13 24.52C12.38 24.52 12.59 24.73 12.59 24.98V27.19ZM12.59 23.6C12.59 23.85 12.39 24.06 12.13 24.06H12.12C11.87 24.06 11.66 23.86 11.66 23.6V8.59C11.66 8.34 11.86 8.13 12.12 8.13H12.13C12.38 8.13 12.59 8.33 12.59 8.59V23.6ZM12.59 7.35C12.59 7.61 12.38 7.81 12.13 7.81C11.88 7.81 11.67 7.6 11.67 7.35V5.14C11.67 4.88 11.88 4.68 12.13 4.68C12.38 4.68 12.59 4.89 12.59 5.14V7.35ZM14.04 27.19C14.04 27.45 13.83 27.65 13.58 27.65C13.33 27.65 13.12 27.44 13.12 27.19V24.98C13.12 24.72 13.33 24.52 13.58 24.52C13.83 24.52 14.04 24.73 14.04 24.98V27.19ZM14.04 23.6C14.04 23.85 13.84 24.06 13.58 24.06H13.57C13.32 24.06 13.11 23.86 13.11 23.6V8.59C13.11 8.34 13.31 8.13 13.57 8.13H13.58C13.83 8.13 14.04 8.33 14.04 8.59V23.6ZM14.04 7.35C14.04 7.61 13.83 7.81 13.58 7.81C13.33 7.81 13.12 7.6 13.12 7.35V5.14C13.12 4.88 13.33 4.68 13.58 4.68C13.83 4.68 14.04 4.89 14.04 5.14V7.35ZM15.48 23.56C15.48 23.82 15.27 24.02 15.02 24.02C14.77 24.02 14.56 23.81 14.56 23.56V21.35C14.56 21.09 14.77 20.89 15.02 20.89C15.27 20.89 15.48 21.1 15.48 21.35V23.56ZM15.48 17.2C15.48 17.46 15.27 17.66 15.02 17.66C14.77 17.66 14.56 17.45 14.56 17.2V14.99C14.56 14.73 14.77 14.53 15.02 14.53C15.27 14.53 15.48 14.74 15.48 14.99V17.2ZM15.48 10.8C15.48 11.06 15.27 11.26 15.02 11.26C14.77 11.26 14.56 11.05 14.56 10.8V8.59C14.56 8.33 14.77 8.13 15.02 8.13C15.27 8.13 15.48 8.34 15.48 8.59V10.8ZM16.92 27.19C16.92 27.45 16.71 27.65 16.46 27.65C16.21 27.65 16 27.44 16 27.19V24.98C16 24.72 16.21 24.52 16.46 24.52C16.71 24.52 16.92 24.73 16.92 24.98V27.19ZM16.92 23.56C16.92 23.82 16.71 24.02 16.46 24.02C16.21 24.02 16 23.81 16 23.56V21.35C16 21.09 16.21 20.89 16.46 20.89C16.71 20.89 16.92 21.1 16.92 21.35V23.56ZM16.92 17.2C16.92 17.46 16.71 17.66 16.46 17.66C16.21 17.66 16 17.45 16 17.2V14.99C16 14.73 16.21 14.53 16.46 14.53C16.71 14.53 16.92 14.74 16.92 14.99V17.2ZM16.92 10.8C16.92 11.06 16.71 11.26 16.46 11.26C16.21 11.26 16 11.05 16 10.8V8.59C16 8.33 16.21 8.13 16.46 8.13C16.71 8.13 16.92 8.34 16.92 8.59V10.8ZM16.92 7.35C16.92 7.61 16.71 7.81 16.46 7.81C16.21 7.81 16 7.6 16 7.35V5.14C16 4.88 16.21 4.68 16.46 4.68C16.71 4.68 16.92 4.89 16.92 5.14V7.35ZM18.37 27.19C18.37 27.45 18.16 27.65 17.91 27.65C17.66 27.65 17.45 27.44 17.45 27.19V24.98C17.45 24.72 17.66 24.52 17.91 24.52C18.16 24.52 18.37 24.73 18.37 24.98V27.19ZM18.37 23.56C18.37 23.82 18.16 24.02 17.91 24.02C17.66 24.02 17.45 23.81 17.45 23.56V21.35C17.45 21.09 17.66 20.89 17.91 20.89C18.16 20.89 18.37 21.1 18.37 21.35V23.56ZM18.37 17.2C18.37 17.46 18.16 17.66 17.91 17.66C17.66 17.66 17.45 17.45 17.45 17.2V14.99C17.45 14.73 17.66 14.53 17.91 14.53C18.16 14.53 18.37 14.74 18.37 14.99V17.2ZM18.37 10.8C18.37 11.06 18.16 11.26 17.91 11.26C17.66 11.26 17.45 11.05 17.45 10.8V8.59C17.45 8.33 17.66 8.13 17.91 8.13C18.16 8.13 18.37 8.34 18.37 8.59V10.8ZM18.37 7.35C18.37 7.61 18.16 7.81 17.91 7.81C17.66 7.81 17.45 7.6 17.45 7.35V5.14C17.45 4.88 17.66 4.68 17.91 4.68C18.16 4.68 18.37 4.89 18.37 5.14V7.35ZM19.81 23.56C19.81 23.82 19.6 24.02 19.35 24.02C19.1 24.02 18.89 23.81 18.89 23.56V21.35C18.89 21.09 19.1 20.89 19.35 20.89C19.6 20.89 19.81 21.1 19.81 21.35V23.56ZM19.81 17.2C19.81 17.46 19.6 17.66 19.35 17.66C19.1 17.66 18.89 17.45 18.89 17.2V14.99C18.89 14.73 19.1 14.53 19.35 14.53C19.6 14.53 19.81 14.74 19.81 14.99V17.2ZM19.81 10.8C19.81 11.06 19.6 11.26 19.35 11.26C19.1 11.26 18.89 11.05 18.89 10.8V8.59C18.89 8.33 19.1 8.13 19.35 8.13C19.6 8.13 19.81 8.34 19.81 8.59V10.8ZM21.26 23.6C21.26 23.85 21.06 24.06 20.8 24.06H20.79C20.54 24.06 20.33 23.86 20.33 23.6V8.59C20.33 8.34 20.53 8.13 20.79 8.13H20.8C21.05 8.13 21.26 8.33 21.26 8.59V23.6ZM22.7 22C22.7 22.26 22.49 22.46 22.24 22.46C21.99 22.46 21.78 22.25 21.78 22V10.19C21.78 9.93 21.99 9.73 22.24 9.73C22.49 9.73 22.7 9.94 22.7 10.19V22ZM24.15 20.33C24.15 20.59 23.94 20.79 23.69 20.79C23.44 20.79 23.23 20.58 23.23 20.33V18.12C23.23 17.86 23.44 17.66 23.69 17.66C23.94 17.66 24.15 17.87 24.15 18.12V20.33ZM24.15 13.98C24.15 14.24 23.94 14.44 23.69 14.44C23.44 14.44 23.23 14.23 23.23 13.98V11.77C23.23 11.51 23.44 11.31 23.69 11.31C23.94 11.31 24.15 11.52 24.15 11.77V13.98Z" fill="#213147"/>
</g>
<defs>
<clipPath id="clip0_3264_147">
<rect width="32" height="32" fill="white"/>
</clipPath>
</defs>
</svg>
