<svg width="32" height="32" viewBox="0 0 32 32" fill="none" xmlns="http://www.w3.org/2000/svg">
<g clip-path="url(#clip0_3149_3)">
<path d="M16 1.13C7.78 1.13 1.12 7.79 1.12 16.01C1.12 24.23 7.78 30.89 16 30.89C24.22 30.89 30.88 24.23 30.88 16.01C30.88 7.79 24.22 1.13 16 1.13ZM26.7 10.52L23.12 12.36C23.31 12.73 23.47 13.12 23.6 13.52L27.42 12.27C27.61 12.87 27.76 13.48 27.86 14.1L23.82 14.74C23.78 14.47 23.72 14.2 23.65 13.93L19.77 14.98C19.68 14.65 19.55 14.34 19.38 14.04L22.86 12.02C22.72 11.78 22.57 11.55 22.41 11.33L25.71 8.92C26.08 9.43 26.41 9.97 26.7 10.52ZM24.48 7.49L18.75 13.24C18.51 13 18.24 12.79 17.94 12.62L19.98 9.08C20.22 9.22 20.45 9.37 20.68 9.53L23.04 6.27C23.55 6.64 24.03 7.05 24.47 7.49H24.48ZM19.7 4.57C20.3 4.76 20.88 5.01 21.44 5.29L19.59 8.93C19.22 8.74 18.83 8.58 18.44 8.46L19.7 4.57ZM10.53 5.3L12.36 8.88C12.73 8.69 13.12 8.53 13.52 8.4L12.27 4.58C12.87 4.39 13.48 4.24 14.1 4.14L14.74 8.18C14.47 8.22 14.2 8.28 13.93 8.35L14.97 12.23C14.64 12.32 14.33 12.45 14.03 12.62L12.01 9.14C11.77 9.28 11.54 9.43 11.32 9.59L8.91 6.29C9.42 5.92 9.96 5.59 10.51 5.3H10.53ZM7.5 7.52L13.24 13.25C13 13.49 12.79 13.77 12.62 14.06L9.08 12.02C9.22 11.78 9.37 11.55 9.53 11.32L6.28 8.96C6.65 8.45 7.06 7.97 7.5 7.53V7.52ZM5.29 10.56L8.93 12.41C8.74 12.78 8.58 13.17 8.46 13.56L4.57 12.3C4.76 11.7 5 11.11 5.29 10.56ZM4.13 14.14L8.11 14.76C8.15 14.48 8.21 14.21 8.28 13.95L12.23 15C12.14 15.33 12.1 15.66 12.1 16.01H3.99C3.99 15.39 4.04 14.76 4.13 14.15V14.14ZM5.31 21.48L8.89 19.64C8.7 19.27 8.54 18.88 8.41 18.48L4.59 19.73C4.4 19.13 4.25 18.52 4.15 17.9L8.19 17.26C8.23 17.53 8.29 17.8 8.36 18.07L12.24 17.02C12.33 17.35 12.46 17.66 12.63 17.96L9.15 19.98C9.29 20.22 9.44 20.45 9.6 20.67L6.3 23.08C5.93 22.57 5.6 22.03 5.31 21.48ZM7.52 24.52L13.25 18.77C13.49 19.01 13.76 19.22 14.06 19.39L12.02 22.93C11.78 22.79 11.55 22.64 11.32 22.48L8.96 25.74C8.45 25.37 7.97 24.96 7.53 24.52H7.52ZM12.31 27.44C11.71 27.25 11.13 27 10.57 26.72L12.42 23.08C12.79 23.27 13.18 23.43 13.57 23.55L12.31 27.44ZM16.01 28.02C15.39 28.02 14.76 27.97 14.15 27.88L14.77 23.9C14.49 23.86 14.22 23.8 13.95 23.73L15 19.78C15.33 19.87 15.66 19.91 16.01 19.91V28.02ZM16 12.1V3.99C16.62 3.99 17.25 4.04 17.86 4.13L17.24 8.11C17.52 8.15 17.79 8.21 18.06 8.28L17.01 12.23C16.68 12.14 16.35 12.1 16 12.1ZM21.48 26.7L19.65 23.12C19.28 23.31 18.89 23.47 18.49 23.6L19.74 27.42C19.14 27.61 18.53 27.76 17.91 27.86L17.27 23.82C17.54 23.78 17.81 23.72 18.08 23.65L17.04 19.77C17.37 19.68 17.68 19.55 17.98 19.38L20 22.86C20.24 22.72 20.47 22.57 20.69 22.41L23.1 25.71C22.59 26.08 22.05 26.41 21.5 26.7H21.48ZM24.51 24.49L18.77 18.76C19.01 18.52 19.22 18.24 19.39 17.95L22.93 19.99C22.79 20.23 22.64 20.46 22.48 20.69L25.73 23.05C25.36 23.56 24.95 24.04 24.51 24.48V24.49ZM26.72 21.45L23.08 19.6C23.27 19.23 23.43 18.84 23.55 18.45L27.44 19.71C27.25 20.31 27 20.9 26.72 21.45ZM23.9 17.25C23.86 17.53 23.8 17.8 23.73 18.07L19.78 17.02C19.87 16.69 19.91 16.36 19.91 16.01H28.02C28.02 16.63 27.97 17.26 27.88 17.87L23.9 17.25Z" fill="#213147"/>
<path d="M16 0C7.16 0 0 7.16 0 16C0 24.84 7.16 32 16 32C24.84 32 32 24.84 32 16C32 7.16 24.84 0 16 0ZM16 31.3C7.55 31.3 0.699997 24.45 0.699997 16C0.699997 7.55 7.55 0.700001 16 0.700001C24.45 0.700001 31.3 7.55 31.3 16C31.3 24.45 24.45 31.3 16 31.3Z" fill="#213147"/>
</g>
<defs>
<clipPath id="clip0_3149_3">
<rect width="32" height="32" fill="white"/>
</clipPath>
</defs>
</svg>
