<svg width="32" height="32" viewBox="0 0 32 32" fill="none" xmlns="http://www.w3.org/2000/svg">
<g clip-path="url(#clip0_3149_5)">
<path d="M16 32C24.8366 32 32 24.8366 32 16C32 7.16344 24.8366 0 16 0C7.16344 0 0 7.16344 0 16C0 24.8366 7.16344 32 16 32Z" fill="black"/>
<path fill-rule="evenodd" clip-rule="evenodd" d="M17.24 8.09998L17.86 4.11998C17.25 4.02998 16.63 3.97998 16 3.97998V12.09C16.34 12.09 16.68 12.13 17.01 12.22L18.06 8.26998C17.79 8.19998 17.52 8.13998 17.24 8.09998Z" fill="white"/>
<path fill-rule="evenodd" clip-rule="evenodd" d="M14.04 12.62L12.02 9.13998C11.78 9.27998 11.55 9.42998 11.33 9.58998L8.92001 6.28998C9.43001 5.91998 9.97001 5.58998 10.52 5.29998L12.35 8.87998C12.72 8.68998 13.11 8.52998 13.51 8.39998L12.26 4.57998C12.86 4.38998 13.47 4.23998 14.09 4.13998L14.73 8.17998C14.46 8.21998 14.19 8.27998 13.92 8.34998L14.96 12.23C14.63 12.32 14.32 12.45 14.02 12.62H14.04Z" fill="white"/>
<path fill-rule="evenodd" clip-rule="evenodd" d="M8.93001 12.41L5.29001 10.56C5.00001 11.12 4.76001 11.71 4.57001 12.3L8.46001 13.56C8.59001 13.17 8.75001 12.78 8.93001 12.41Z" fill="white"/>
<path fill-rule="evenodd" clip-rule="evenodd" d="M22.86 12.02L19.38 14.04C19.55 14.33 19.68 14.65 19.77 14.98L23.65 13.93C23.72 14.2 23.78 14.47 23.82 14.74L27.86 14.1C27.76 13.48 27.61 12.86 27.42 12.27L23.6 13.52C23.47 13.12 23.31 12.74 23.12 12.36L26.7 10.52C26.41 9.95998 26.08 9.41998 25.71 8.91998L22.41 11.33C22.57 11.55 22.72 11.78 22.86 12.02Z" fill="white"/>
<path fill-rule="evenodd" clip-rule="evenodd" d="M21.44 5.27998C20.88 4.99998 20.29 4.74998 19.7 4.55998L18.44 8.44998C18.83 8.57998 19.22 8.73998 19.59 8.91998L21.44 5.26998V5.27998Z" fill="white"/>
<path fill-rule="evenodd" clip-rule="evenodd" d="M19.99 9.06998L17.95 12.61C18.25 12.78 18.52 12.99 18.76 13.23L24.49 7.47998C24.05 7.03998 23.56 6.62998 23.06 6.25998L20.7 9.51998C20.47 9.35998 20.24 9.20998 20 9.06998H19.99Z" fill="white"/>
<path fill-rule="evenodd" clip-rule="evenodd" d="M12.61 14.05L9.07001 12.01C9.21001 11.77 9.36001 11.54 9.52001 11.31L6.27001 8.94998C6.64001 8.43998 7.05001 7.95998 7.49001 7.51998L13.23 13.25C12.99 13.49 12.78 13.77 12.61 14.06V14.05Z" fill="white"/>
<path fill-rule="evenodd" clip-rule="evenodd" d="M8.27001 13.94L12.22 14.99C12.13 15.32 12.09 15.65 12.09 16H3.98001C3.98001 15.38 4.03001 14.75 4.12001 14.14L8.10001 14.76C8.14001 14.48 8.20001 14.21 8.27001 13.94Z" fill="white"/>
<path fill-rule="evenodd" clip-rule="evenodd" d="M23.07 19.59L26.71 21.44C26.99 20.88 27.24 20.29 27.43 19.7L23.54 18.44C23.41 18.83 23.25 19.22 23.07 19.59Z" fill="white"/>
<path fill-rule="evenodd" clip-rule="evenodd" d="M17.96 19.38L19.98 22.86C20.22 22.72 20.45 22.57 20.67 22.41L23.08 25.71C22.57 26.08 22.03 26.41 21.48 26.7L19.65 23.12C19.28 23.31 18.89 23.47 18.49 23.6L19.74 27.42C19.14 27.61 18.53 27.76 17.91 27.86L17.27 23.82C17.54 23.78 17.81 23.72 18.08 23.65L17.04 19.77C17.37 19.68 17.68 19.55 17.98 19.38H17.96Z" fill="white"/>
<path fill-rule="evenodd" clip-rule="evenodd" d="M9.14001 19.98L12.62 17.96C12.45 17.67 12.32 17.35 12.23 17.02L8.35001 18.07C8.28001 17.8 8.22001 17.53 8.18001 17.26L4.14001 17.9C4.24001 18.52 4.39001 19.14 4.58001 19.73L8.40001 18.48C8.53001 18.88 8.69001 19.26 8.88001 19.64L5.30001 21.48C5.59001 22.04 5.92001 22.58 6.29001 23.08L9.59001 20.67C9.43001 20.45 9.28001 20.22 9.14001 19.98Z" fill="white"/>
<path fill-rule="evenodd" clip-rule="evenodd" d="M10.56 26.72C11.12 27 11.71 27.25 12.3 27.44L13.56 23.55C13.17 23.42 12.78 23.26 12.41 23.08L10.56 26.72Z" fill="white"/>
<path fill-rule="evenodd" clip-rule="evenodd" d="M12.01 22.93L14.05 19.39C13.75 19.22 13.48 19.01 13.24 18.77L7.51001 24.52C7.95001 24.96 8.44001 25.37 8.94001 25.74L11.3 22.48C11.53 22.64 11.76 22.79 12 22.93H12.01Z" fill="white"/>
<path fill-rule="evenodd" clip-rule="evenodd" d="M19.38 17.95L22.92 19.99C22.78 20.23 22.63 20.46 22.47 20.69L25.72 23.05C25.35 23.56 24.94 24.04 24.5 24.48L18.76 18.75C19 18.51 19.21 18.23 19.38 17.94V17.95Z" fill="white"/>
<path fill-rule="evenodd" clip-rule="evenodd" d="M14.99 19.77L13.94 23.72C14.21 23.79 14.48 23.85 14.76 23.89L14.14 27.87C14.75 27.96 15.37 28.01 16 28.01V19.9C15.66 19.9 15.32 19.86 14.99 19.77Z" fill="white"/>
<path fill-rule="evenodd" clip-rule="evenodd" d="M19.77 17.01C19.86 16.68 19.9 16.35 19.9 16H28.01C28.01 16.62 27.96 17.25 27.87 17.86L23.89 17.24C23.85 17.52 23.79 17.79 23.72 18.06L19.77 17.01Z" fill="white"/>
</g>
<defs>
<clipPath id="clip0_3149_5">
<rect width="32" height="32" fill="white"/>
</clipPath>
</defs>
</svg>
