<svg width="32" height="32" viewBox="0 0 32 32" fill="none" xmlns="http://www.w3.org/2000/svg">
<g clip-path="url(#clip0_3302_3)">
<rect width="32" height="32" fill="white"/>
<path d="M16 32C24.8366 32 32 24.8366 32 16C32 7.16344 24.8366 0 16 0C7.16344 0 0 7.16344 0 16C0 24.8366 7.16344 32 16 32Z" fill="#010101"/>
<path d="M26 12.38V6.84998C26 6.37998 25.62 5.99998 25.15 5.99998H19.62C19.26 5.99998 18.95 6.22998 18.82 6.54998C18.56 7.00998 18.01 8.13998 17.78 8.62998C17.71 8.78998 17.67 8.94998 17.67 9.11998V12.39H14.35V9.11998C14.35 8.94998 14.31 8.77998 14.24 8.61998C13.99 8.10998 13.41 6.90998 13.17 6.47998C13.04 6.18998 12.74 5.97998 12.4 5.97998H6.86999C6.39999 5.97998 6.01999 6.35998 6.01999 6.82998V12.36C6.01999 12.71 6.22999 13.01 6.52999 13.14C6.51999 13.14 6.49999 13.14 6.49999 13.14C7.72999 13.8 8.33999 14.1 8.63999 14.24C8.78999 14.31 8.94999 14.34 9.10999 14.34H12.43V17.63H9.09999C8.93999 17.63 8.77999 17.66 8.62999 17.73C8.33999 17.86 7.71999 18.16 6.48999 18.83C6.49999 18.83 6.51999 18.83 6.53999 18.82C6.23999 18.95 6.01999 19.25 6.01999 19.6V25.13C6.01999 25.6 6.39999 25.98 6.86999 25.98H12.4C12.76 25.98 13.07 25.75 13.2 25.43C13.46 24.97 14.01 23.84 14.24 23.35C14.31 23.2 14.35 23.03 14.35 22.86V19.55H17.67V22.86C17.67 23.03 17.71 23.2 17.78 23.36C18.03 23.87 18.61 25.07 18.85 25.5C18.98 25.79 19.28 26 19.62 26H25.15C25.62 26 26 25.62 26 25.15V19.62C26 19.27 25.79 18.97 25.49 18.84C25.5 18.84 25.52 18.84 25.52 18.84C24.29 18.18 23.68 17.88 23.38 17.74C23.23 17.67 23.07 17.64 22.91 17.64H19.6V14.35H22.92C23.08 14.35 23.24 14.32 23.39 14.25C23.68 14.12 24.3 13.82 25.53 13.15C25.52 13.15 25.5 13.15 25.48 13.16C25.78 13.03 26 12.73 26 12.38ZM6.84999 12.38V6.84998H12.38V12.38H6.84999ZM25.15 19.62V25.15H19.62V19.62H25.15ZM6.84999 18.76C6.84999 18.76 6.78999 18.76 6.75999 18.76C6.78999 18.76 6.81999 18.75 6.83999 18.76H6.84999ZM6.84999 25.15V19.62H12.38V25.15H6.84999ZM13.26 18.71V13.25H18.76V18.7H13.26V18.71ZM19.62 12.38V6.84998H25.15V12.38H19.62ZM25.15 13.24H25.09H25.14C25.17 13.24 25.2 13.24 25.23 13.24C25.2 13.24 25.17 13.25 25.15 13.24Z" fill="#FDFDFD"/>
</g>
<defs>
<clipPath id="clip0_3302_3">
<rect width="32" height="32" fill="white"/>
</clipPath>
</defs>
</svg>
