<svg width="32" height="32" viewBox="0 0 32 32" fill="none" xmlns="http://www.w3.org/2000/svg">
<g clip-path="url(#clip0_3302_5)">
<rect width="32" height="32" fill="white"/>
<path d="M12.38 19.62H6.85V25.15H12.38V19.62Z" fill="#213147"/>
<path d="M12.38 6.86H6.85V12.39H12.38V6.86Z" fill="#213147"/>
<path d="M18.75 13.26H13.25V18.72H18.75V13.26Z" fill="#213147"/>
<path d="M6.85 18.77C6.85 18.77 6.81 18.77 6.77 18.77C6.8 18.77 6.83 18.77 6.86 18.77H6.85Z" fill="#213147"/>
<path d="M25.15 19.62H19.62V25.15H25.15V19.62Z" fill="#213147"/>
<path d="M16 0C7.16 0 0 7.17 0 16C0 24.83 7.16 32 16 32C24.84 32 32 24.84 32 16C32 7.16 24.84 0 16 0ZM26 12.39C26 12.74 25.79 13.04 25.48 13.17C25.5 13.17 25.52 13.16 25.53 13.16C24.3 13.82 23.69 14.12 23.39 14.26C23.24 14.33 23.08 14.36 22.92 14.36H19.6V17.65H22.91C23.07 17.65 23.23 17.68 23.38 17.75C23.67 17.88 24.29 18.18 25.52 18.85C25.52 18.85 25.5 18.85 25.49 18.85C25.79 18.98 26 19.28 26 19.63V25.16C26 25.63 25.62 26.01 25.15 26.01H19.62C19.28 26.01 18.98 25.8 18.85 25.51C18.61 25.09 18.03 23.89 17.78 23.37C17.71 23.22 17.67 23.05 17.67 22.87V19.56H14.35V22.87C14.35 23.04 14.31 23.21 14.24 23.36C14 23.85 13.46 24.98 13.2 25.44C13.08 25.76 12.77 25.99 12.4 25.99H6.87C6.4 25.99 6.02 25.61 6.02 25.14V19.61C6.02 19.26 6.23 18.96 6.54 18.83C6.52 18.83 6.5 18.84 6.49 18.84C7.72 18.18 8.33 17.88 8.63 17.74C8.78 17.67 8.94 17.64 9.1 17.64H12.43V14.35H9.11C8.95 14.35 8.79 14.32 8.64 14.25C8.35 14.12 7.73 13.82 6.5 13.15C6.5 13.15 6.52 13.15 6.53 13.15C6.23 13.02 6.02 12.72 6.02 12.37V6.84C6.02 6.37 6.4 5.99 6.87 5.99H12.4C12.74 5.99 13.04 6.2 13.17 6.49C13.41 6.91 13.99 8.11 14.24 8.63C14.31 8.78 14.35 8.95 14.35 9.13V12.4H17.67V9.13C17.67 8.96 17.71 8.79 17.78 8.64C18.02 8.15 18.56 7.02 18.82 6.56C18.94 6.24 19.25 6.01 19.62 6.01H25.15C25.62 6.01 26 6.39 26 6.86V12.39Z" fill="#213147"/>
<path d="M25.1 13.24H25.16C25.16 13.24 25.2 13.24 25.24 13.24C25.21 13.24 25.18 13.24 25.15 13.24H25.1Z" fill="#213147"/>
<path d="M25.15 6.86H19.62V12.39H25.15V6.86Z" fill="#213147"/>
</g>
<defs>
<clipPath id="clip0_3302_5">
<rect width="32" height="32" fill="white"/>
</clipPath>
</defs>
</svg>
