<svg width="32" height="32" viewBox="0 0 32 32" fill="none" xmlns="http://www.w3.org/2000/svg">
<g clip-path="url(#clip0_3302_123)">
<rect width="32" height="32" fill="white"/>
<path d="M16 0C24.84 0 32 7.16 32 16C32 24.84 24.84 32 16 32C7.16 32 0 24.84 0 16C0 7.16 7.17 0 16 0Z" fill="white"/>
<path fill-rule="evenodd" clip-rule="evenodd" d="M16 0C24.84 0 32 7.16 32 16C32 24.84 24.84 32 16 32C7.16 32 0 24.84 0 16C0 7.16 7.17 0 16 0ZM27.29 16.95C26.83 22.45 22.45 26.83 16.95 27.29H27.29V16.95ZM4.71 27.29H15.05C9.55 26.83 5.17 22.44 4.71 16.94V27.29ZM16 24.67L20.64 18.26L16 20.79L11.36 18.26L16 24.67ZM11.16 16.25L16.01 18.89L20.86 16.25L16.01 14.27L11.16 16.25ZM4.71 15.06C5.16 9.55 9.55 5.16 15.06 4.71H4.71V15.06ZM16.94 4.71C22.44 5.16 26.83 9.54 27.29 15.05V4.71H16.94ZM11.4 14.35L16 12.47L16.32 12.6L20.6 14.35L16 7.34L11.4 14.35Z" fill="black"/>
</g>
<defs>
<clipPath id="clip0_3302_123">
<rect width="32" height="32" fill="white"/>
</clipPath>
</defs>
</svg>
