<svg width="32" height="32" viewBox="0 0 32 32" fill="none" xmlns="http://www.w3.org/2000/svg">
<g clip-path="url(#clip0_3302_125)">
<rect width="32" height="32" fill="white"/>
<path fill-rule="evenodd" clip-rule="evenodd" d="M16 0C24.84 0 32 7.16 32 16C32 24.84 24.84 32 16 32C7.16 32 0 24.84 0 16C0 7.16 7.16 0 16 0ZM27.29 16.95C26.83 22.45 22.45 26.83 16.95 27.29H27.29V16.95ZM4.71 27.29H15.05C9.55 26.83 5.17 22.44 4.71 16.94V27.29ZM16 24.66L20.64 18.25L16 20.78L11.36 18.25L16 24.66ZM11.16 16.24L16.01 18.88L20.86 16.24L16.01 14.26L11.16 16.24ZM4.71 15.05C5.16 9.54 9.55 5.15 15.06 4.7H4.71V15.05ZM16.94 4.7C22.44 5.15 26.83 9.53 27.29 15.04V4.7H16.94ZM11.4 14.34L16 12.46L16.32 12.59L20.6 14.34L16 7.33L11.4 14.34Z" fill="#213147"/>
</g>
<defs>
<clipPath id="clip0_3302_125">
<rect width="32" height="32" fill="white"/>
</clipPath>
</defs>
</svg>
