<svg width="32" height="32" viewBox="0 0 32 32" fill="none" xmlns="http://www.w3.org/2000/svg">
<g clip-path="url(#clip0_3302_24)">
<rect width="32" height="32" fill="white"/>
<path d="M27.31 4.69V27.32H4.69V4.69C1.79 7.58 0 11.58 0 16C0 24.84 7.16 32 16 32C24.84 32 32 24.84 32 16C32 11.58 30.21 7.58 27.31 4.69Z" fill="#213147"/>
<path d="M16 0C11.58 0 7.58 1.79 4.69 4.69H27.32C24.42 1.79 20.42 0 16.01 0H16Z" fill="#213147"/>
<path d="M22.75 14.32C23.04 12.4 21.58 11.37 19.58 10.69L20.23 8.09L18.65 7.7L18.02 10.23C17.6 10.13 17.18 10.03 16.75 9.93L17.38 7.39L15.8 7L15.15 9.59C14.81 9.51 14.47 9.43 14.14 9.35L11.96 8.8L11.54 10.49C11.54 10.49 12.71 10.76 12.69 10.78C13.33 10.94 13.45 11.36 13.43 11.7L12.69 14.66C12.69 14.66 12.79 14.69 12.85 14.71C12.8 14.7 12.74 14.68 12.68 14.67L11.65 18.81C11.57 19 11.37 19.3 10.93 19.19C10.95 19.21 9.78 18.9 9.78 18.9L9 20.71L11.06 21.22C11.44 21.32 11.82 21.42 12.19 21.51L11.54 24.13L13.12 24.52L13.77 21.92C14.2 22.04 14.62 22.14 15.03 22.25L14.38 24.83L15.96 25.22L16.61 22.6C19.3 23.11 21.33 22.9 22.18 20.47C22.87 18.51 22.15 17.38 20.73 16.64C21.76 16.4 22.54 15.72 22.75 14.32ZM19.14 19.38C18.65 21.34 15.35 20.28 14.28 20.02L15.15 16.54C16.22 16.81 19.65 17.34 19.14 19.38ZM19.63 14.3C19.18 16.08 16.44 15.18 15.54 14.96L16.33 11.81C17.22 12.03 20.09 12.45 19.63 14.31V14.3Z" fill="#213147"/>
</g>
<defs>
<clipPath id="clip0_3302_24">
<rect width="32" height="32" fill="white"/>
</clipPath>
</defs>
</svg>
