<svg width="32" height="32" viewBox="0 0 32 32" fill="none" xmlns="http://www.w3.org/2000/svg">
<g clip-path="url(#clip0_3302_67)">
<rect width="32" height="32" fill="white"/>
<path d="M16 32C24.8366 32 32 24.8366 32 16C32 7.16344 24.8366 0 16 0C7.16344 0 0 7.16344 0 16C0 24.8366 7.16344 32 16 32Z" fill="#010101"/>
<path d="M27.32 4.69H4.69V27.32H27.32V4.69Z" fill="white"/>
<path d="M16 27.31C22.2463 27.31 27.31 22.2463 27.31 16C27.31 9.75366 22.2463 4.69 16 4.69C9.75366 4.69 4.69 9.75366 4.69 16C4.69 22.2463 9.75366 27.31 16 27.31Z" fill="#010101"/>
<path d="M11.55 18.72C11.63 18.64 11.74 18.59 11.86 18.59H22.38C22.57 18.59 22.67 18.82 22.53 18.96L20.45 21.04C20.37 21.12 20.26 21.17 20.14 21.17H9.62C9.43 21.17 9.33 20.94 9.47 20.8L11.55 18.72Z" fill="white"/>
<path d="M11.55 10.96C11.63 10.88 11.74 10.83 11.86 10.83H22.38C22.57 10.83 22.67 11.06 22.53 11.2L20.45 13.28C20.37 13.36 20.26 13.41 20.14 13.41H9.62C9.43 13.41 9.33 13.18 9.47 13.04L11.55 10.96Z" fill="white"/>
<path d="M20.45 14.81C20.37 14.73 20.26 14.68 20.14 14.68H9.62C9.43 14.68 9.33 14.91 9.47 15.05L11.55 17.13C11.63 17.21 11.74 17.26 11.86 17.26H22.38C22.57 17.26 22.67 17.03 22.53 16.89L20.45 14.81Z" fill="white"/>
</g>
<defs>
<clipPath id="clip0_3302_67">
<rect width="32" height="32" fill="white"/>
</clipPath>
</defs>
</svg>
