<svg width="32" height="32" viewBox="0 0 32 32" fill="none" xmlns="http://www.w3.org/2000/svg">
<g clip-path="url(#clip0_3302_69)">
<rect width="32" height="32" fill="white"/>
<path d="M27.31 4.69002V27.32H4.69V4.69002C1.79 7.59002 0 11.59 0 16C0 24.84 7.16 32 16 32C24.84 32 32 24.84 32 16C32 11.58 30.21 7.58002 27.31 4.69002Z" fill="#213147"/>
<path d="M16 0C11.58 0 7.58 1.79002 4.69 4.69002L27.32 4.69C24.42 1.79 20.42 0 16.01 0H16Z" fill="#213147"/>
<path d="M16 4.69002C9.75 4.69002 4.69 9.76003 4.69 16C4.69 22.24 9.76 27.31 16 27.31C22.24 27.31 27.31 22.24 27.31 16C27.31 9.76003 22.24 4.69002 16 4.69002ZM22.53 18.97L20.45 21.05C20.37 21.13 20.26 21.18 20.15 21.18H9.63C9.44 21.18 9.34 20.95 9.48 20.81L11.56 18.73C11.64 18.65 11.75 18.6 11.86 18.6H22.38C22.57 18.6 22.67 18.83 22.53 18.97ZM22.38 17.27H11.86C11.74 17.27 11.63 17.22 11.56 17.14L9.48 15.06C9.34 14.92 9.44 14.69 9.63 14.69H20.15C20.27 14.69 20.38 14.74 20.45 14.82L22.53 16.9C22.67 17.04 22.57 17.27 22.38 17.27ZM22.53 11.2L20.45 13.28C20.37 13.36 20.26 13.41 20.15 13.41H9.63C9.44 13.41 9.34 13.18 9.48 13.04L11.56 10.96C11.64 10.88 11.75 10.83 11.86 10.83H22.38C22.57 10.83 22.67 11.06 22.53 11.2Z" fill="#213147"/>
</g>
<defs>
<clipPath id="clip0_3302_69">
<rect width="32" height="32" fill="white"/>
</clipPath>
</defs>
</svg>
