<svg width="32" height="32" viewBox="0 0 32 32" fill="none" xmlns="http://www.w3.org/2000/svg">
<g clip-path="url(#clip0_3302_99)">
<rect width="32" height="32" fill="white"/>
<path fill-rule="evenodd" clip-rule="evenodd" d="M4.71 27.29H27.29V4.71H4.71V27.29Z" fill="white"/>
<path fill-rule="evenodd" clip-rule="evenodd" d="M16 0C24.84 0 32 7.16 32 16C32 24.84 24.84 32 16 32C7.16 32 0 24.84 0 16C0 7.16 7.16 0 16 0ZM4.71 27.29H27.29V4.71H4.71V27.29Z" fill="#010101"/>
<path d="M10.6 19.28C10.7 19.18 10.83 19.13 10.97 19.13H23.74C23.97 19.13 24.09 19.41 23.92 19.57L21.4 22.07C21.3 22.17 21.17 22.22 21.03 22.22H8.26C8.03 22.22 7.91 21.94 8.08 21.78L10.6 19.28ZM10.6 9.93C10.7 9.83 10.83 9.78 10.97 9.78H23.74C23.97 9.78 24.09 10.06 23.92 10.22L21.4 12.72C21.3 12.82 21.17 12.87 21.03 12.87H8.26C8.03 12.87 7.91 12.59 8.08 12.43L10.6 9.93ZM21.4 14.57C21.3 14.47 21.17 14.42 21.03 14.42H8.26C8.03 14.42 7.91 14.7 8.08 14.86L10.6 17.36C10.7 17.46 10.83 17.51 10.97 17.51H23.74C23.97 17.51 24.09 17.23 23.92 17.07L21.4 14.57Z" fill="#010101"/>
</g>
<defs>
<clipPath id="clip0_3302_99">
<rect width="32" height="32" fill="white"/>
</clipPath>
</defs>
</svg>
