<svg width="32" height="32" viewBox="0 0 32 32" fill="none" xmlns="http://www.w3.org/2000/svg">
<g clip-path="url(#clip0_3302_101)">
<rect width="32" height="32" fill="white"/>
<path fill-rule="evenodd" clip-rule="evenodd" d="M16 0C24.84 0 32 7.16 32 16C32 24.84 24.84 32 16 32C7.16 32 0 24.84 0 16C0 7.16 7.16 0 16 0ZM4.71 27.29H27.29V4.71H4.71V27.29Z" fill="#213147"/>
<path d="M10.6 19.5002C10.7 19.4002 10.83 19.3502 10.97 19.3502H23.74C23.97 19.3502 24.09 19.6302 23.92 19.7902L21.4 22.2902C21.3 22.3902 21.17 22.4402 21.03 22.4402H8.26C8.03 22.4402 7.91 22.1602 8.08 22.0002L10.6 19.5002ZM10.6 10.1502C10.7 10.0502 10.83 10.0002 10.97 10.0002H23.74C23.97 10.0002 24.09 10.2802 23.92 10.4402L21.4 12.9402C21.3 13.0402 21.17 13.0902 21.03 13.0902H8.26C8.03 13.0902 7.91 12.8102 8.08 12.6502L10.6 10.1502ZM21.4 14.7902C21.3 14.6902 21.17 14.6402 21.03 14.6402H8.26C8.03 14.6402 7.91 14.9202 8.08 15.0802L10.6 17.5802C10.7 17.6802 10.83 17.7302 10.97 17.7302H23.74C23.97 17.7302 24.09 17.4502 23.92 17.2902L21.4 14.7902Z" fill="#213147"/>
</g>
<defs>
<clipPath id="clip0_3302_101">
<rect width="32" height="32" fill="white"/>
</clipPath>
</defs>
</svg>
